<?xml version="1.0" encoding="UTF-8"?>
<!DOCTYPE svg PUBLIC "-//W3C//DTD SVG 1.1//EN" "http://www.w3.org/Graphics/SVG/1.1/DTD/svg11.dtd">
<!-- Creator: CorelDRAW -->
<svg xmlns="http://www.w3.org/2000/svg" xml:space="preserve" width="6.82666in" height="6.82666in" style="shape-rendering:geometricPrecision; text-rendering:geometricPrecision; image-rendering:optimizeQuality; fill-rule:evenodd; clip-rule:evenodd"
viewBox="0 0 6.82666 6.82666"
 xmlns:xlink="http://www.w3.org/1999/xlink">
 <defs>
  <style type="text/css">
   <![CDATA[
    .fil3 {fill:none}
    .fil0 {fill:#424242}
    .fil1 {fill:#FFFFFE}
    .fil2 {fill:#FFFFFE;fill-rule:nonzero}
   ]]>
  </style>
 </defs>
 <rect class="fil0" width="6.82666" height="6.82666"/>
 <g id="Layer_x0020_1">
  <metadata id="CorelCorpID_0Corel-Layer"/>
  <path class="fil1" d="M4.61459 2.10648l0.365787 0c0.212665,0 0.404618,0.10702 0.542551,0.279441 0.132748,0.165929 0.215146,0.393138 0.215146,0.641547l0 2.84135 0 0.104512 -0.104512 0 -1.67216 0 -0.104512 0 0 -0.104512 0 -2.84135c0,-0.248413 0.0823976,-0.475618 0.215142,-0.641547 0.137937,-0.172421 0.32989,-0.279441 0.542555,-0.279441zm-0.253882 1.25196l0.873555 0 0.0990669 0 0 0.106669 0 1.46313 0 0.106669 -0.0990669 0 -0.873555 0 -0.0990669 0 0 -0.106669 0 -1.46313 0 -0.106669 0.0990669 0z"/>
  <path class="fil2" d="M4.60491 0.959996l0.385157 0c0.0991654,0 0.180906,0.0861772 0.180906,0.190717l0 0.902079c-0.0610433,-0.0167874 -0.124795,-0.0257441 -0.190591,-0.0257441l-0.365787 0c-0.0657953,0 -0.129543,0.00895669 -0.190587,0.0257441l0 -0.902079c0,-0.104539 0.0817362,-0.190717 0.180902,-0.190717z"/>
  <path class="fil2" d="M2.31969 2.45234l1.12444 0 0.106669 0 0 0.113366c0,0.407394 -0.135894,0.777181 -0.355594,1.0457 -0.223402,0.273035 -0.532902,0.441921 -0.87552,0.441921 -0.342614,0 -0.65211,-0.168886 -0.87552,-0.441921 -0.219697,-0.268516 -0.355591,-0.638303 -0.355591,-1.0457l0 -3.93701e-006 0 -0.112921 0.106669 0 1.12444 3.93701e-006 0 -0.000444882zm0.106665 0.106665l0 0.000444882 -1.23111 -3.93701e-006 0 0.00625984c0,0.23063 0.0471339,0.463866 0.143213,0.674165 0.681776,0.102252 1.06125,0.0160787 1.44065,-0.0701457 0.185283,-0.0421063 0.370575,-0.0842165 0.589268,-0.105669 0.0507362,-0.160917 0.0757638,-0.330323 0.0757638,-0.49835l0 -0.00670079 -1.01778 0z"/>
  <polygon class="fil2" points="2.42637,3.85212 2.42637,5.86569 2.21303,5.86569 2.21303,3.85212 "/>
  <path class="fil2" d="M1.95914 5.75902c-0.0589094,0 -0.106669,0.0477598 -0.106669,0.106669 0,0.0589094 0.0477598,0.106669 0.106669,0.106669l0.72111 0c0.0589094,0 0.106669,-0.0477598 0.106669,-0.106669 0,-0.0589094 -0.0477598,-0.106669 -0.106669,-0.106669l-0.72111 0z"/>
 </g>
 <rect class="fil3" width="6.82666" height="6.82666"/>
</svg>
